<svg xmlns="http://www.w3.org/2000/svg" width="600" height="300" viewBox="0 0 600 300">
  <rect width="600" height="300" rx="12" fill="#1a1a2e"/>
  <rect x="20" y="20" width="560" height="36" rx="8" fill="#16213e"/>
  <circle cx="40" cy="38" r="5" fill="#ff5f56"/>
  <circle cx="58" cy="38" r="5" fill="#ffbd2e"/>
  <circle cx="76" cy="38" r="5" fill="#27c93f"/>
  <rect x="180" y="30" width="240" height="16" rx="4" fill="#0f3460"/>
  <text x="220" y="42" font-family="monospace" font-size="10" fill="#7f8c9b">localhost:3000</text>
  <text x="40" y="90" font-family="serif" font-size="22" fill="#f8f8f2">Raashul</text>
  <rect x="40" y="110" width="200" height="8" rx="2" fill="#2a2a4a"/>
  <rect x="40" y="126" width="160" height="8" rx="2" fill="#2a2a4a"/>
  <rect x="40" y="160" width="520" height="1" fill="#2a2a4a"/>
  <text x="40" y="190" font-family="monospace" font-size="12" fill="#50fa7b">Blog</text>
  <text x="120" y="190" font-family="monospace" font-size="12" fill="#8be9fd">Segments</text>
  <text x="230" y="190" font-family="monospace" font-size="12" fill="#8be9fd">Reading</text>
  <text x="330" y="190" font-family="monospace" font-size="12" fill="#8be9fd">Working On</text>
  <rect x="40" y="210" width="520" height="60" rx="6" fill="#16213e"/>
  <rect x="56" y="226" width="180" height="8" rx="2" fill="#2a2a4a"/>
  <rect x="56" y="242" width="140" height="8" rx="2" fill="#2a2a4a"/>
</svg>
